<?xml version="1.0" encoding="UTF-8"?>
<svg id="Layer_1" xmlns="http://www.w3.org/2000/svg" version="1.1" viewBox="0 0 940.1 1014.8">
  <!-- Generator: Adobe Illustrator 29.1.0, SVG Export Plug-In . SVG Version: 2.1.0 Build 142)  -->
  <defs>
    <style>
      .st0 {
        fill: #fff;
        stroke: #000;
        stroke-miterlimit: 10;
      }
    </style>
  </defs>
  <rect x="46.4" y="48" width="865.9" height="929.6"/>
  <path class="st0" d="M718.6,800.4h-137.3v-74.5h137.3v74.5ZM542.7,547.8v61.9h177.4v54.2h-140.4l-63,44v111.4l63.1,42.6h105.8l34.4-31.7,34.3,31.7h31.2v-251.4l-65.2-62.8h-177.7.1Z"/>
  <polygon class="st0" points="373.7 417.1 265.4 417.1 233.5 385.3 233.5 260.4 265.4 228.6 372.2 228.6 403.5 260 452.7 211 407.7 166.1 236.9 166.1 167 236 167 408.9 236.9 478.8 409.3 478.8 454.2 433.9 405.4 385 373.7 417.1"/>
  <path class="st0" d="M381.6,683.1l-22.2,20.4h-109.1v-93.7h109.1l22.2,20.6v52.7ZM184.6,547.8v317.8h65.6v-100.2h142.5l56.3-57.5v-101.9l-57.4-58.2h-207.1,0Z"/>
  <polygon class="st0" points="799 166 733.8 166 733.8 243.8 650.8 410.6 650.2 410.6 567.2 243.8 567.2 166 502.1 166 502.1 266.9 617.3 478.1 683.6 478.1 799 266.9 798.8 266.8 799 266.8 799 166"/>
</svg>